<svg width="20" height="20" viewBox="0 0 20 20" version="1.1" xmlns="http://www.w3.org/2000/svg" xmlns:xlink="http://www.w3.org/1999/xlink">
    <title>Facebook</title>
    <desc>Created using Figma</desc>
    <g id="Canvas" transform="translate(-108 -166)">
        <g id="Facebook">
            <use xlink:href="#path0_fill" transform="translate(108 166)" fill="#FFFFFF"/>
        </g>
    </g>
    <defs>
        <path id="path0_fill" fill-rule="evenodd" d="M 10.6826 20L 1.10385 20C 0.49403 20 0 19.5057 0 18.8961L 0 1.10384C 0 0.494104 0.494108 0 1.10385 0L 18.8962 0C 19.5058 0 20 0.494104 20 1.10384L 20 18.8961C 20 19.5057 19.5057 20 18.8962 20L 13.7997 20L 13.7997 12.2549L 16.3994 12.2549L 16.7886 9.23649L 13.7997 9.23649L 13.7997 7.30943C 13.7997 6.43554 14.0424 5.84 15.2955 5.84L 16.8939 5.83931L 16.8939 3.13962C 16.6175 3.10284 15.6687 3.02065 14.5648 3.02065C 12.2603 3.02065 10.6826 4.4273 10.6826 7.0105L 10.6826 9.23649L 8.0763 9.23649L 8.0763 12.2549L 10.6826 12.2549L 10.6826 20Z"/>
    </defs>
</svg>
