<svg width="32" height="20" viewBox="0 0 32 20" version="1.1" xmlns="http://www.w3.org/2000/svg" xmlns:xlink="http://www.w3.org/1999/xlink">
    <title>GooglePlus</title>
    <desc>Created using Figma</desc>
    <g id="Canvas" transform="translate(-608 -436)">
        <g id="GooglePlus">
            <use xlink:href="#path0_fill" transform="translate(608 436)" fill="#FFFFFF"/>
        </g>
    </g>
    <defs>
        <path id="path0_fill" fill-rule="evenodd" d="M 27.9694 8.21782L 27.9694 4.75247L 25.4986 4.75247L 25.4986 8.21782L 21.9407 8.21782L 21.9407 10.6931L 25.4986 10.6931L 25.4986 14.2574L 27.9694 14.2574L 27.9694 10.6931L 31.4285 10.6931L 31.4285 8.21782L 27.9694 8.21782ZM 9.98203 8.0198L 9.98203 11.9802C 9.98203 11.9802 13.8171 11.975 15.3787 11.975C 14.533 14.5425 13.2182 15.9406 9.98203 15.9406C 6.70704 15.9406 4.15094 13.2809 4.15094 10C 4.15094 6.71911 6.70704 4.05941 9.98203 4.05941C 11.7136 4.05941 12.8319 4.66911 13.8576 5.51891C 14.6787 4.69634 14.6101 4.57911 16.6991 2.60277C 14.9258 0.985743 12.5689 0 9.98203 0C 4.46908 0 0 4.47713 0 10C 0 15.5228 4.46908 20 9.98203 20C 18.2223 20 20.2364 12.8119 19.5687 8.0198C 17.618 8.0198 9.98203 8.0198 9.98203 8.0198Z"/>
    </defs>
</svg>
