<svg width="20" height="20" viewBox="0 0 20 20" version="1.1" xmlns="http://www.w3.org/2000/svg" xmlns:xlink="http://www.w3.org/1999/xlink">
    <title>Instagram</title>
    <desc>Created using Figma</desc>
    <g id="Canvas" transform="translate(-608 -166)">
        <g id="Instagram">
            <use xlink:href="#path0_fill" transform="translate(608 166)" fill="#FFFFFF"/>
        </g>
    </g>
    <defs>
        <path id="path0_fill" fill-rule="evenodd" d="M 10 0C 7.28418 0 6.9436 0.0115051 5.87701 0.0601807C 4.81262 0.108719 4.08569 0.277786 3.44965 0.525009C 2.79205 0.780518 2.23438 1.12245 1.67841 1.67839C 1.12244 2.23436 0.780518 2.79204 0.525024 3.44962C 0.277771 4.08569 0.108704 4.81262 0.0601807 5.87701C 0.0115356 6.94362 0 7.28416 0 10C 0 12.7158 0.0115356 13.0564 0.0601807 14.123C 0.108704 15.1874 0.277771 15.9143 0.525024 16.5504C 0.780518 17.208 1.12244 17.7656 1.67841 18.3216C 2.23438 18.8775 2.79205 19.2195 3.44965 19.475C 4.08569 19.7222 4.81262 19.8913 5.87701 19.9398C 6.9436 19.9885 7.28418 20 10 20C 12.7158 20 13.0564 19.9885 14.123 19.9398C 15.1874 19.8913 15.9143 19.7222 16.5504 19.475C 17.2079 19.2195 17.7656 18.8775 18.3216 18.3216C 18.8776 17.7656 19.2195 17.208 19.475 16.5504C 19.7222 15.9143 19.8913 15.1874 19.9398 14.123C 19.9885 13.0564 20 12.7158 20 10C 20 7.28416 19.9885 6.94362 19.9398 5.87701C 19.8913 4.81262 19.7222 4.08569 19.475 3.44962C 19.2195 2.79204 18.8776 2.23436 18.3216 1.67839C 17.7656 1.12245 17.2079 0.780518 16.5504 0.525009C 15.9143 0.277786 15.1874 0.108719 14.123 0.0601807C 13.0564 0.0115051 12.7158 0 10 0ZM 10.0001 1.8018C 12.6701 1.8018 12.9864 1.81201 14.0409 1.86012C 15.0159 1.90457 15.5453 2.06749 15.8977 2.20444C 16.3645 2.38583 16.6976 2.60254 17.0475 2.95248C 17.3975 3.3024 17.6142 3.63551 17.7956 4.10229C 17.9326 4.45467 18.0955 4.98416 18.1399 5.95915C 18.188 7.01361 18.1982 7.3299 18.1982 10C 18.1982 12.6701 18.188 12.9864 18.1399 14.0409C 18.0955 15.0159 17.9326 15.5453 17.7956 15.8977C 17.6142 16.3645 17.3975 16.6976 17.0475 17.0475C 16.6976 17.3975 16.3645 17.6142 15.8977 17.7956C 15.5453 17.9325 15.0159 18.0954 14.0409 18.1399C 12.9866 18.188 12.6703 18.1982 10.0001 18.1982C 7.32971 18.1982 7.01349 18.188 5.95917 18.1399C 4.98419 18.0954 4.45465 17.9325 4.10229 17.7956C 3.63556 17.6142 3.30243 17.3975 2.95251 17.0475C 2.6026 16.6976 2.38586 16.3645 2.20447 15.8977C 2.0675 15.5453 1.9046 15.0159 1.86011 14.0409C 1.81201 12.9864 1.80182 12.6701 1.80182 10C 1.80182 7.3299 1.81201 7.01361 1.86011 5.95915C 1.9046 4.98416 2.0675 4.45467 2.20447 4.10229C 2.38586 3.63551 2.60254 3.3024 2.95251 2.95248C 3.30243 2.60254 3.63556 2.38583 4.10229 2.20444C 4.45465 2.06749 4.98419 1.90457 5.95917 1.86012C 7.01361 1.81201 7.3299 1.8018 10.0001 1.8018ZM 4.86487 10C 4.86487 7.16393 7.16394 4.86487 10 4.86487C 12.8361 4.86487 15.1351 7.16393 15.1351 10C 15.1351 12.8361 12.8361 15.1351 10 15.1351C 7.16394 15.1351 4.86487 12.8361 4.86487 10ZM 10.0001 13.3333C 8.15906 13.3333 6.66669 11.841 6.66669 10C 6.66669 8.15904 8.15906 6.66667 10.0001 6.66667C 11.841 6.66667 13.3334 8.15904 13.3334 10C 13.3334 11.841 11.841 13.3333 10.0001 13.3333ZM 15.338 5.86197C 16.0008 5.86197 16.5381 5.32474 16.5381 4.66199C 16.5381 3.99924 16.0008 3.46196 15.338 3.46196C 14.6754 3.46196 14.1381 3.99924 14.1381 4.66199C 14.1381 5.32474 14.6754 5.86197 15.338 5.86197Z"/>
    </defs>
</svg>
