<svg width="18" height="20" viewBox="0 0 18 20" version="1.1" xmlns="http://www.w3.org/2000/svg" xmlns:xlink="http://www.w3.org/1999/xlink">
    <title>Vine</title>
    <desc>Created using Figma</desc>
    <g id="Canvas" transform="translate(-858 -436)">
        <g id="Vine">
            <use xlink:href="#path0_fill" transform="translate(858 436)" fill="#FFFFFF"/>
        </g>
    </g>
    <defs>
        <path id="path0_fill" fill-rule="evenodd" d="M 17.3913 9.94255C 16.8805 10.0613 16.3858 10.1138 15.9413 10.1138C 13.4381 10.1138 11.5113 8.3513 11.5113 5.2869C 11.5113 3.78502 12.0872 3.00377 12.9018 3.00377C 13.6767 3.00377 14.1931 3.70502 14.1931 5.1269C 14.1931 5.93566 13.978 6.82129 13.8199 7.34566C 13.8199 7.34566 14.5911 8.70192 16.7001 8.28567C 17.1477 7.28379 17.3913 5.98503 17.3913 4.84628C 17.3913 1.78251 15.8415 0 13.001 0C 10.0812 0 8.37267 2.26314 8.37267 5.2469C 8.37267 8.20317 9.74332 10.7413 12.0036 11.8976C 11.0532 13.8138 9.84375 15.5026 8.58221 16.7751C 6.29407 13.9857 4.22539 10.2651 3.3761 3.00377L 0 3.00377C 1.55972 15.097 6.20852 18.9476 7.43721 19.687C 8.13276 20.1076 8.73161 20.0876 9.36703 19.727C 10.3651 19.1545 13.3618 16.1345 15.0226 12.5963C 15.7194 12.5944 16.5569 12.5138 17.3913 12.3232L 17.3913 9.94255Z"/>
    </defs>
</svg>
