<svg width="29" height="20" viewBox="0 0 29 20" version="1.1" xmlns="http://www.w3.org/2000/svg" xmlns:xlink="http://www.w3.org/1999/xlink">
    <title>Youtube</title>
    <desc>Created using Figma</desc>
    <g id="Canvas" transform="translate(-108 -436)">
        <g id="Youtube">
            <use xlink:href="#path0_fill" transform="translate(108 436)" fill="#FFFFFF"/>
        </g>
    </g>
    <defs>
        <path id="path0_fill" fill-rule="evenodd" d="M 11.2024 13.6882L 11.2015 5.69867L 18.8303 9.7072L 11.2024 13.6882ZM 27.9529 4.31421C 27.9529 4.31421 27.6768 2.35482 26.8306 1.49198C 25.7568 0.358999 24.5532 0.353668 24.0018 0.28791C 20.0506 0 14.1238 0 14.1238 0L 14.1115 0C 14.1115 0 8.18471 0 4.23353 0.28791C 3.68118 0.353668 2.47853 0.358999 1.40382 1.49198C 0.557647 2.35482 0.282353 4.31421 0.282353 4.31421C 0.282353 4.31421 0 6.61572 0 8.91634L 0 11.0739C 0 13.3754 0.282353 15.676 0.282353 15.676C 0.282353 15.676 0.557647 17.6354 1.40382 18.4982C 2.47853 19.6312 3.88941 19.5957 4.51765 19.7139C 6.77647 19.9325 14.1176 20 14.1176 20C 14.1176 20 20.0506 19.9911 24.0018 19.7032C 24.5532 19.6366 25.7568 19.6312 26.8306 18.4982C 27.6768 17.6354 27.9529 15.676 27.9529 15.676C 27.9529 15.676 28.2353 13.3754 28.2353 11.0739L 28.2353 8.91634C 28.2353 6.61572 27.9529 4.31421 27.9529 4.31421Z"/>
    </defs>
</svg>
